<mxfile host="app.diagrams.net" modified="2024-07-11T16:46:21.245Z" agent="Mozilla/5.0 (Windows NT 10.0; Win64; x64) AppleWebKit/537.36 (KHTML, like Gecko) Chrome/126.0.0.0 Safari/537.36" etag="y7g7uZrDMgORqghSaLNI" version="24.6.4" type="device">
  <diagram name="Page-1" id="w5ClZPRWRFvCxjPFkPrI">
    <mxGraphModel dx="1154" dy="532" grid="1" gridSize="10" guides="1" tooltips="1" connect="1" arrows="1" fold="1" page="1" pageScale="1" pageWidth="850" pageHeight="1100" math="0" shadow="0">
      <root>
        <mxCell id="0" />
        <mxCell id="1" parent="0" />
        <mxCell id="pscRUcZhTwgnnduImwL--1" value="Start" style="rounded=1;whiteSpace=wrap;html=1;" vertex="1" parent="1">
          <mxGeometry x="140" y="50" width="120" height="60" as="geometry" />
        </mxCell>
        <mxCell id="pscRUcZhTwgnnduImwL--2" value="Stop" style="rounded=1;whiteSpace=wrap;html=1;" vertex="1" parent="1">
          <mxGeometry x="355" y="460" width="120" height="60" as="geometry" />
        </mxCell>
        <mxCell id="pscRUcZhTwgnnduImwL--3" value="grade: int = 0&lt;div&gt;sum: int = 0&lt;/div&gt;&lt;div&gt;count: int = 0&lt;/div&gt;" style="rounded=0;whiteSpace=wrap;html=1;" vertex="1" parent="1">
          <mxGeometry x="140" y="130" width="120" height="60" as="geometry" />
        </mxCell>
        <mxCell id="pscRUcZhTwgnnduImwL--17" value="" style="edgeStyle=orthogonalEdgeStyle;rounded=0;orthogonalLoop=1;jettySize=auto;html=1;" edge="1" parent="1" source="pscRUcZhTwgnnduImwL--13">
          <mxGeometry relative="1" as="geometry">
            <mxPoint x="195" y="377" as="targetPoint" />
          </mxGeometry>
        </mxCell>
        <mxCell id="pscRUcZhTwgnnduImwL--18" style="edgeStyle=orthogonalEdgeStyle;rounded=0;orthogonalLoop=1;jettySize=auto;html=1;" edge="1" parent="1" source="pscRUcZhTwgnnduImwL--13">
          <mxGeometry relative="1" as="geometry">
            <mxPoint x="344.9999999999998" y="309.9999999999999" as="targetPoint" />
          </mxGeometry>
        </mxCell>
        <mxCell id="pscRUcZhTwgnnduImwL--13" value="while&amp;nbsp;&lt;div&gt;grade &amp;gt;=0 and grade &amp;lt;= 100&lt;/div&gt;" style="ellipse;whiteSpace=wrap;html=1;aspect=fixed;" vertex="1" parent="1">
          <mxGeometry x="155" y="270" width="80" height="80" as="geometry" />
        </mxCell>
        <mxCell id="pscRUcZhTwgnnduImwL--14" value="" style="endArrow=none;html=1;rounded=0;" edge="1" parent="1">
          <mxGeometry width="50" height="50" relative="1" as="geometry">
            <mxPoint x="155" y="527.66" as="sourcePoint" />
            <mxPoint x="225" y="527.66" as="targetPoint" />
          </mxGeometry>
        </mxCell>
        <mxCell id="pscRUcZhTwgnnduImwL--15" value="" style="endArrow=none;html=1;rounded=0;" edge="1" parent="1">
          <mxGeometry width="50" height="50" relative="1" as="geometry">
            <mxPoint x="130" y="537.66" as="sourcePoint" />
            <mxPoint x="235" y="537.66" as="targetPoint" />
          </mxGeometry>
        </mxCell>
        <mxCell id="pscRUcZhTwgnnduImwL--16" value="" style="endArrow=classic;html=1;rounded=0;" edge="1" parent="1">
          <mxGeometry width="50" height="50" relative="1" as="geometry">
            <mxPoint x="192" y="495.65999999999997" as="sourcePoint" />
            <mxPoint x="192" y="525.66" as="targetPoint" />
          </mxGeometry>
        </mxCell>
        <mxCell id="pscRUcZhTwgnnduImwL--20" value="" style="edgeStyle=orthogonalEdgeStyle;rounded=0;orthogonalLoop=1;jettySize=auto;html=1;" edge="1" parent="1" source="pscRUcZhTwgnnduImwL--19" target="pscRUcZhTwgnnduImwL--2">
          <mxGeometry relative="1" as="geometry" />
        </mxCell>
        <mxCell id="pscRUcZhTwgnnduImwL--19" value="print(avg)" style="shape=document;whiteSpace=wrap;html=1;boundedLbl=1;" vertex="1" parent="1">
          <mxGeometry x="355" y="357" width="120" height="70" as="geometry" />
        </mxCell>
        <mxCell id="pscRUcZhTwgnnduImwL--21" value="grade:&lt;div&gt;-1&lt;/div&gt;&lt;div&gt;sum: 170&lt;/div&gt;&lt;div&gt;count: 2&lt;/div&gt;&lt;div&gt;avg: 85&lt;/div&gt;" style="text;html=1;align=center;verticalAlign=middle;whiteSpace=wrap;rounded=0;" vertex="1" parent="1">
          <mxGeometry x="360" y="70" width="160" height="90" as="geometry" />
        </mxCell>
        <mxCell id="pscRUcZhTwgnnduImwL--22" value="input&lt;div&gt;grade&lt;/div&gt;" style="shape=card;whiteSpace=wrap;html=1;" vertex="1" parent="1">
          <mxGeometry x="145" y="441.65999999999997" width="90" height="40" as="geometry" />
        </mxCell>
        <mxCell id="pscRUcZhTwgnnduImwL--23" value="input&lt;div&gt;grade&lt;/div&gt;" style="shape=card;whiteSpace=wrap;html=1;" vertex="1" parent="1">
          <mxGeometry x="150" y="210" width="90" height="40" as="geometry" />
        </mxCell>
        <mxCell id="pscRUcZhTwgnnduImwL--24" value="avg: float = sum / count" style="rounded=0;whiteSpace=wrap;html=1;" vertex="1" parent="1">
          <mxGeometry x="350" y="260" width="150" height="80" as="geometry" />
        </mxCell>
        <mxCell id="pscRUcZhTwgnnduImwL--25" value="sum = sum + grade&lt;div&gt;count = count + 1&lt;/div&gt;" style="rounded=0;whiteSpace=wrap;html=1;" vertex="1" parent="1">
          <mxGeometry x="135" y="387" width="120" height="40" as="geometry" />
        </mxCell>
      </root>
    </mxGraphModel>
  </diagram>
</mxfile>
